#!OML:ASF E:\Style6\Style6.ASF
:FULLY-SPECIFIED
:DEGREES
3270
root 0.507525 17.9491 0.568584 -5.01466 -5.89944 -2.66348
lowerback -0.4927 -0.0824303 3.09765
upperback 8.81292 -0.426114 1.50531
thorax 9.57778 -0.0428743 -0.170642
lowerneck 2.49098 -3.55861 1.86895
upperneck -3.31831 -4.88079 -5.06905
head -1.65414 -2.36799 -1.80867
rclavicle -1.68967e-015 7.55382e-015
rhumerus -28.8179 22.8715 -101.074
rradius 131.882
rwrist 47.9673
rhand 5.58992 -3.29111
rfingers 7.12502
rthumb 30.9325 -30.7054
lclavicle -1.68967e-015 7.55382e-015
lhumerus -25.653 -17.2443 97.3093
lradius 132.758
lwrist -33.6451
lhand 5.93093 35.3063
lfingers 7.12502
lthumb 31.2575 62.6583
rfemur -2.95035 7.77616 22.2503
rtibia 22.5498
rfoot -8.03067 -13.1374
rtoes -16.9587
lfemur 0.204727 -10.9765 -18.6998
ltibia 25.7121
lfoot -12.4051 18.7693
ltoes -13.7343
3271
root 0.510199 17.9492 0.572581 -4.97512 -5.90599 -2.73281
lowerback -0.500781 -0.104328 3.20446
upperback 8.77776 -0.463572 1.5379
thorax 9.54292 -0.0549936 -0.199178
lowerneck 2.49445 -3.56112 1.80431
upperneck -3.26838 -4.88276 -5.02719
head -1.63523 -2.36945 -1.78374
rclavicle -1.04362e-015 2.78299e-015
rhumerus -28.9042 22.9262 -101.102
rradius 131.813
rwrist 48.2965
rhand 4.88972 -3.54971
rfingers 7.12502
rthumb 30.2648 -31.0887
lclavicle -1.04362e-015 2.78299e-015
lhumerus -25.6291 -17.1754 97.3181
lradius 132.75
lwrist -33.6837
lhand 5.95674 35.3703
lfingers 7.12502
lthumb 31.2821 62.7177
rfemur -2.95213 7.81576 22.3184
rtibia 22.5246
rfoot -8.04012 -13.1628
rtoes -16.6184
lfemur 0.227466 -11.0221 -18.648
ltibia 25.649
lfoot -12.2579 18.8673
ltoes -14.1998
3272
root 0.513165 17.9506 0.57602 -4.92836 -5.89273 -2.62706
lowerback -0.509751 -0.120424 3.09908
upperback 8.73408 -0.478123 1.53794
thorax 9.49871 -0.071206 -0.142088
lowerneck 2.49821 -3.58245 1.75049
upperneck -3.23807 -4.91129 -5.00699
head -1.6248 -2.38369 -1.76702
rclavicle -3.18055e-015 2.38542e-014
rhumerus -28.9744 22.9112 -101.088
rradius 131.859
rwrist 48.2202
rhand 4.55615 -3.78415
rfingers 7.12502
rthumb 29.9465 -31.3811
lclavicle -3.18055e-015 2.38542e-014
lhumerus -25.623 -17.1287 97.3367
lradius 132.748
lwrist -33.6942
lhand 5.9958 35.3935
lfingers 7.12502
lthumb 31.3193 62.7337
rfemur -3.00574 7.79893 22.1814
rtibia 22.5321
rfoot -8.01566 -13.1646
rtoes -17.001
lfemur 0.23082 -11.0487 -18.7799
ltibia 25.5397
lfoot -12.0128 18.9775
ltoes -15.0643
3273
root 0.516419 17.9538 0.579024 -4.86221 -5.87843 -2.48842
lowerback -0.551364 -0.135747 2.97835
upperback 8.7281 -0.491372 1.51063
thorax 9.51594 -0.0857387 -0.105042
lowerneck 2.41685 -3.60838 1.76685
upperneck -3.23484 -4.94622 -5.01776
head -1.61159 -2.40236 -1.77375
rclavicle 7.45443e-015 -2.10712e-014
rhumerus -28.9107 22.9025 -101.068
rradius 131.968
rwrist 47.8563
rhand 4.88798 -3.78258
rfingers 7.12502
rthumb 30.2631 -31.3219
lclavicle 7.45443e-015 -2.10712e-014
lhumerus -25.5795 -17.0942 97.3382
lradius 132.727
lwrist -33.7694
lhand 5.9495 35.3155
lfingers 7.12502
lthumb 31.2752 62.6642
rfemur -3.1123 7.76124 22
rtibia 22.5854
rfoot -7.99742 -13.1493
rtoes -17.4379
lfemur 0.218952 -11.0912 -18.9387
ltibia 25.3937
lfoot -12.1003 18.9927
ltoes -14.1983
3274
root 0.51872 17.9568 0.581346 -4.82459 -5.87903 -2.38687
lowerback -0.539734 -0.158342 2.88715
upperback 8.72735 -0.51443 1.48878
thorax 9.50723 -0.103329 -0.0794069
lowerneck 2.41656 -3.60466 1.86188
upperneck -3.29849 -4.94302 -5.07959
head -1.63712 -2.40014 -1.8104
rclavicle 1.39149e-015 -1.66979e-014
rhumerus -28.8388 22.8949 -101.064
rradius 132.005
rwrist 47.6959
rhand 5.08967 -3.66498
rfingers 7.12502
rthumb 30.4555 -31.1688
lclavicle 1.39149e-015 -1.66979e-014
lhumerus -25.5465 -17.069 97.3247
lradius 132.727
lwrist -33.7811
lhand 5.89789 35.191
lfingers 7.12502
lthumb 31.226 62.5492
rfemur -3.20218 7.78702 21.8776
rtibia 22.6607
rfoot -8.01282 -13.167
rtoes -17.5612
lfemur 0.251435 -11.1595 -19.0668
ltibia 25.2414
lfoot -12.1694 19.0212
ltoes -13.6931
3275
root 0.520821 17.9572 0.582921 -4.80686 -5.86367 -2.2852
lowerback -0.52536 -0.176413 2.77239
upperback 8.73063 -0.532203 1.49393
thorax 9.50195 -0.121415 -0.0114602
lowerneck 2.40447 -3.60531 1.88537
upperneck -3.31725 -4.94561 -5.11897
head -1.64327 -2.40101 -1.82738
rclavicle -4.82053e-015 -1.27222e-014
rhumerus -28.7953 22.8548 -100.992
rradius 131.988
rwrist 47.7841
rhand 5.10587 -3.68022
rfingers 7.12502
rthumb 30.4709 -31.1812
lclavicle -4.82053e-015 -1.27222e-014
lhumerus -25.4923 -17.0591 97.3593
lradius 132.718
lwrist -33.785
lhand 5.92566 35.058
lfingers 7.12502
lthumb 31.2525 62.411
rfemur -3.25516 7.85311 21.7631
rtibia 22.7198
rfoot -8.09162 -13.2101
rtoes -17.4347
lfemur 0.300318 -11.2169 -19.1972
ltibia 25.1241
lfoot -12.2589 18.9929
ltoes -12.8072
